<?xml version="1.0" standalone="no"?>
<!DOCTYPE svg PUBLIC "-//W3C//DTD SVG 20010904//EN"
 "http://www.w3.org/TR/2001/REC-SVG-20010904/DTD/svg10.dtd">
<svg version="1.0" xmlns="http://www.w3.org/2000/svg"
 width="181.000000pt" height="181.000000pt" viewBox="0 0 181.000000 181.000000"
 preserveAspectRatio="xMidYMid meet">

<g transform="translate(0.000000,181.000000) scale(0.100000,-0.100000)"
fill="#000000" stroke="none">
<path d="M815 1794 c-386 -57 -662 -290 -771 -649 -24 -79 -27 -107 -28 -235
-1 -121 3 -159 22 -228 81 -301 302 -535 574 -610 36 -10 37 -9 28 9 -7 13 -7
19 0 19 5 0 10 -3 10 -7 0 -5 21 -9 48 -10 l47 -2 -55 15 c-156 41 -338 162
-443 294 -65 82 -137 223 -163 320 -27 100 -25 321 4 423 64 226 223 422 426
527 41 21 73 40 71 42 -2 2 4 4 13 5 24 1 156 37 160 43 1 3 62 4 135 4 188
-3 320 -41 470 -138 32 -20 60 -36 63 -36 3 0 16 -11 30 -25 17 -17 33 -24 50
-21 13 3 24 0 24 -5 0 -5 6 -9 13 -9 6 0 -6 16 -28 35 -127 111 -255 181 -397
215 -82 20 -244 33 -303 24z"/>
<path d="M1010 1225 c0 -26 0 -26 24 -8 21 16 22 19 8 25 -28 11 -32 9 -32
-17z"/>
<path d="M1346 1093 c-6 -14 -5 -15 5 -6 7 7 10 15 7 18 -3 3 -9 -2 -12 -12z"/>
<path d="M837 777 c-18 -18 -18 -19 0 -32 10 -8 21 -15 26 -15 9 0 8 29 -1 50
-6 14 -9 13 -25 -3z"/>
<path d="M556 415 l-28 -22 34 -26 c18 -14 47 -30 63 -36 28 -10 29 -10 10 4
-11 9 -20 21 -21 28 -3 34 -5 38 -16 31 -7 -4 -8 -3 -4 4 4 7 3 18 -1 26 -7
12 -13 10 -37 -9z"/>
<path d="M768 73 c7 -3 16 -2 19 1 4 3 -2 6 -13 5 -11 0 -14 -3 -6 -6z"/>
</g>
</svg>
